<svg width="85" height="96" viewBox="0 0 85 96" fill="none" xmlns="http://www.w3.org/2000/svg">
<path d="M51.3978 31.9373V19.5486H74.0486V0H11.1739V19.5486H33.8884V31.9373C14.8588 33.0761 0.572754 37.8296 0.572754 43.5238C0.572754 49.2181 14.8429 53.9418 33.8884 55.1104V96H51.3978V55.1104C70.4274 53.9814 84.7135 49.228 84.7135 43.5238C84.7135 37.8197 70.4433 33.0761 51.3978 31.9373ZM42.6431 51.4066C22.0377 51.4066 5.33213 47.4454 5.33213 42.6722C5.33213 38.5624 17.5012 35.1162 33.8725 34.1952V48.1882C36.6899 48.3466 39.6188 48.4357 42.6272 48.4357C45.6356 48.4357 48.5804 48.3466 51.3819 48.1882V34.1952C67.7532 35.1162 79.9222 38.5624 79.9222 42.6722C79.9541 47.4949 63.2485 51.4066 42.6431 51.4066Z" fill="#92F2AD"/>
</svg>
